#define italic_width 16
#define italic_height 16
static unsigned char italic_bits[] = {
   0x00, 0x00, 0xe0, 0x1f, 0x80, 0x07, 0x00, 0x03, 0x00, 0x03, 0x80, 0x01,
   0x80, 0x01, 0x80, 0x01, 0xc0, 0x00, 0xc0, 0x00, 0xc0, 0x00, 0x60, 0x00,
   0x60, 0x00, 0xf0, 0x00, 0xfc, 0x03, 0x00, 0x00};
