#define ComboBox_up_width 11
#define ComboBox_up_height 14
static char ComboBox_up_bits[] = {
 0xfe,0x03,0xfe,0x03,0x00,0x00,0x20,0x00,0x70,0x00,0xf8,0x00,0xfc,0x01,0xfe,
 0x03,0x70,0x00,0x70,0x00,0x70,0x00,0x70,0x00,0x70,0x00,0x00,0x00};
