#define ComboBox_down_width 11
#define ComboBox_down_height 14
static char ComboBox_down_bits[] = {
 0x00,0x00,0x70,0x00,0x70,0x00,0x70,0x00,0x70,0x00,0x70,0x00,0xfe,0x03,0xfc,
 0x01,0xf8,0x00,0x70,0x00,0x20,0x00,0x00,0x00,0xfe,0x03,0xfe,0x03};
