#define xcPrintCanvas_left_width 15
#define xcPrintCanvas_left_height 15
static unsigned char xcPrintCanvas_left_bits[] = {
   0x00, 0x00, 0x80, 0x00, 0xc0, 0x00, 0xe0, 0x00, 0xf0, 0x00, 0xf8, 0x3f,
   0xfc, 0x3f, 0xfe, 0x3f, 0xfc, 0x3f, 0xf8, 0x3f, 0xf0, 0x00, 0xe0, 0x00,
   0xc0, 0x00, 0x80, 0x00, 0x00, 0x00};
