#define xcPrintCanvas_right_width 15
#define xcPrintCanvas_right_height 15
static char xcPrintCanvas_right_bits[] = {
 0x00,0x00,0x80,0x00,0x80,0x01,0x80,0x03,0x80,0x07,0xfe,0x0f,0xfe,0x1f,0xfe,
 0x3f,0xfe,0x1f,0xfe,0x0f,0x80,0x07,0x80,0x03,0x80,0x01,0x80,0x00,0x00,0x00
 };
