/* XPM */
static char * xcrysden_xpm[] = {
"32 32 436 2",
"  	c None",
". 	c #9494C1",
"+ 	c #ABABDC",
"@ 	c #B8B8E1",
"# 	c #9393BF",
"$ 	c #8989B5",
"% 	c #A3A3D3",
"& 	c #E2E2EC",
"* 	c #B4B4E2",
"= 	c #8080AA",
"- 	c #6E6E96",
"; 	c #8282AE",
"> 	c #9393C5",
", 	c #9F9FCD",
"' 	c #9090BC",
") 	c #8787AF",
"! 	c #4B4B6E",
"~ 	c #5A5A7F",
"{ 	c #6F6F97",
"] 	c #76769F",
"^ 	c #6A6A93",
"/ 	c #8381A5",
"( 	c #4A4A6D",
"_ 	c #2A2A4A",
": 	c #3C3C5B",
"< 	c #3A3B5F",
"[ 	c #5D4E35",
"} 	c #796430",
"| 	c #5D4E2C",
"1 	c #686682",
"2 	c #5E574E",
"3 	c #202141",
"4 	c #6C6C90",
"5 	c #524325",
"6 	c #725D2C",
"7 	c #565670",
"8 	c #696983",
"9 	c #6B6C84",
"0 	c #685935",
"a 	c #493D20",
"b 	c #626283",
"c 	c #636587",
"d 	c #5F5F83",
"e 	c #8484A3",
"f 	c #7F7F96",
"g 	c #6B582A",
"h 	c #737396",
"i 	c #747497",
"j 	c #8B8BB0",
"k 	c #9494AE",
"l 	c #51516A",
"m 	c #4F4F69",
"n 	c #6A6A81",
"o 	c #6E6969",
"p 	c #4F4C58",
"q 	c #4B4C70",
"r 	c #757177",
"s 	c #60607E",
"t 	c #4C4C69",
"u 	c #9393B4",
"v 	c #7F7F99",
"w 	c #70708F",
"x 	c #655533",
"y 	c #706F91",
"z 	c #676789",
"A 	c #8080A4",
"B 	c #A3A3B6",
"C 	c #8686AC",
"D 	c #4B4B62",
"E 	c #3A3A51",
"F 	c #4A4A63",
"G 	c #51516D",
"H 	c #4C4D66",
"I 	c #2E2E41",
"J 	c #59597A",
"K 	c #2A2D4D",
"L 	c #98834A",
"M 	c #64647D",
"N 	c #4D4D68",
"O 	c #484862",
"P 	c #636386",
"Q 	c #585874",
"R 	c #3B3B52",
"S 	c #42425B",
"T 	c #45455F",
"U 	c #42425C",
"V 	c #6E6E92",
"W 	c #626281",
"X 	c #4F4F6D",
"Y 	c #5F5F81",
"Z 	c #707093",
"` 	c #484860",
" .	c #242437",
"..	c #2D2D41",
"+.	c #656584",
"@.	c #9D9BB9",
"#.	c #3D3B51",
"$.	c #C7AC53",
"%.	c #71739B",
"&.	c #474761",
"*.	c #28283F",
"=.	c #40405A",
"-.	c #7F7FA6",
";.	c #6B6B8E",
">.	c #9292B5",
",.	c #676786",
"'.	c #34344E",
").	c #3A3A55",
"!.	c #4B4B68",
"~.	c #494965",
"{.	c #302E3A",
"].	c #6A6A8C",
"^.	c #8A8AB4",
"/.	c #A3A3CE",
"(.	c #BCBCD1",
"_.	c #9E9DB8",
":.	c #69636C",
"<.	c #AD9A59",
"[.	c #535370",
"}.	c #2C2D43",
"|.	c #222237",
"1.	c #9D9DCB",
"2.	c #9A9AC9",
"3.	c #BCBCE6",
"4.	c #C6C6E5",
"5.	c #B4B5DE",
"6.	c #7D7D9E",
"7.	c #666687",
"8.	c #3F3E58",
"9.	c #212036",
"0.	c #212139",
"a.	c #7C7CA4",
"b.	c #727298",
"c.	c #8C8CB6",
"d.	c #ACACCB",
"e.	c #9D9CC8",
"f.	c #86818F",
"g.	c #B1973B",
"h.	c #2A2006",
"i.	c #373646",
"j.	c #8888B3",
"k.	c #8787B2",
"l.	c #8383B0",
"m.	c #AAAAD4",
"n.	c #C2C2E5",
"o.	c #AAAADB",
"p.	c #40415F",
"q.	c #7B7266",
"r.	c #78799E",
"s.	c #545476",
"t.	c #68688E",
"u.	c #737399",
"v.	c #7E7EA4",
"w.	c #847B73",
"x.	c #796E65",
"y.	c #555679",
"z.	c #5E5F83",
"A.	c #535474",
"B.	c #9696C1",
"C.	c #6F6F96",
"D.	c #66668C",
"E.	c #7D7DA8",
"F.	c #8C8CBA",
"G.	c #8D8DB9",
"H.	c #52526E",
"I.	c #917D3C",
"J.	c #73632E",
"K.	c #73749D",
"L.	c #3A3A58",
"M.	c #353553",
"N.	c #9090BA",
"O.	c #ABA09E",
"P.	c #27273A",
"Q.	c #A4A4CC",
"R.	c #69698F",
"S.	c #3E3E5F",
"T.	c #505074",
"U.	c #616186",
"V.	c #5A5A7E",
"W.	c #3F3F58",
"X.	c #988541",
"Y.	c #776833",
"Z.	c #535374",
"`.	c #2E2E4A",
" +	c #ACACDF",
".+	c #B8B8ED",
"++	c #CFD0FF",
"@+	c #D6D6FD",
"#+	c #C6C6F1",
"$+	c #8D8DB5",
"%+	c #2A2A3C",
"&+	c #76769D",
"*+	c #474769",
"=+	c #252542",
"-+	c #2B2B49",
";+	c #494963",
">+	c #9A8340",
",+	c #57587D",
"'+	c #B0B0E5",
")+	c #9A9ACA",
"!+	c #9F9FD3",
"~+	c #DDDDFC",
"{+	c #E4E4FF",
"]+	c #CDCDFF",
"^+	c #545474",
"/+	c #4F4E68",
"(+	c #222129",
"_+	c #575776",
":+	c #4C4C6B",
"<+	c #9191B4",
"[+	c #87879C",
"}+	c #9D8943",
"|+	c #7E6E36",
"1+	c #494968",
"2+	c #9C9CCD",
"3+	c #8080AC",
"4+	c #8383B1",
"5+	c #9B9BCE",
"6+	c #AAAADF",
"7+	c #AFAFE2",
"8+	c #8788B7",
"9+	c #6B6B94",
"0+	c #484341",
"a+	c #686780",
"b+	c #5E5E7B",
"c+	c #52526F",
"d+	c #7979A0",
"e+	c #8989A2",
"f+	c #707091",
"g+	c #A28B43",
"h+	c #7C6723",
"i+	c #535476",
"j+	c #B8B9EC",
"k+	c #616189",
"l+	c #5C5C83",
"m+	c #7676A1",
"n+	c #8484B1",
"o+	c #8182B6",
"p+	c #877657",
"q+	c #494C77",
"r+	c #2F2A21",
"s+	c #626385",
"t+	c #555573",
"u+	c #8080A8",
"v+	c #53536E",
"w+	c #A28941",
"x+	c #8182A9",
"y+	c #918D9C",
"z+	c #464665",
"A+	c #7E757A",
"B+	c #7273A2",
"C+	c #373758",
"D+	c #3F3F63",
"E+	c #4D4D72",
"F+	c #4C4C70",
"G+	c #7C788F",
"H+	c #7C6947",
"I+	c #A58434",
"J+	c #866E26",
"K+	c #767CB2",
"L+	c #292940",
"M+	c #2E2E45",
"N+	c #4F506E",
"O+	c #76769B",
"P+	c #8B8BB3",
"Q+	c #A7A8BE",
"R+	c #9D97A1",
"S+	c #54547A",
"T+	c #303051",
"U+	c #424265",
"V+	c #ACADD4",
"W+	c #A6A7C9",
"X+	c #5C5D60",
"Y+	c #95772A",
"Z+	c #947E50",
"`+	c #4C4750",
" @	c #090B26",
".@	c #9393C0",
"+@	c #A6A6D8",
"@@	c #B9BAE8",
"#@	c #B9B9DD",
"$@	c #6F6F92",
"%@	c #67678A",
"&@	c #7A7AA2",
"*@	c #A0A0B8",
"=@	c #726869",
"-@	c #7F82B1",
";@	c #8989B2",
">@	c #8282AA",
",@	c #68688F",
"'@	c #C5C5D8",
")@	c #AEAED3",
"!@	c #8F91B9",
"~@	c #397C82",
"{@	c #4B818F",
"]@	c #25253E",
"^@	c #9E7B1F",
"/@	c #9E97A9",
"(@	c #8F8FBC",
"_@	c #9D9DCE",
":@	c #D9D9EB",
"<@	c #C3C3E8",
"[@	c #737395",
"}@	c #4C4C6C",
"|@	c #5D5D7E",
"1@	c #6B6C90",
"2@	c #5B596F",
"3@	c #484867",
"4@	c #4B4C71",
"5@	c #515273",
"6@	c #525271",
"7@	c #8787AE",
"8@	c #65658A",
"9@	c #6D6D92",
"0@	c #7F7FAA",
"a@	c #8B8BB6",
"b@	c #8181A9",
"c@	c #5C6786",
"d@	c #5D5F80",
"e@	c #5C6483",
"f@	c #635D85",
"g@	c #7B7AAB",
"h@	c #8585B2",
"i@	c #7B7BA5",
"j@	c #8383AF",
"k@	c #A2A2D0",
"l@	c #A9A9DA",
"m@	c #9A9AC8",
"n@	c #6D6D90",
"o@	c #3E3E5A",
"p@	c #30304B",
"q@	c #43435F",
"r@	c #40405D",
"s@	c #655120",
"t@	c #655223",
"u@	c #878CB2",
"v@	c #525172",
"w@	c #434362",
"x@	c #5B5B7E",
"y@	c #646488",
"z@	c #505373",
"A@	c #428192",
"B@	c #3A7C90",
"C@	c #5AA6B1",
"D@	c #5097A7",
"E@	c #60888F",
"F@	c #A3A1CF",
"G@	c #5B5B81",
"H@	c #5F5F85",
"I@	c #7777A1",
"J@	c #74749C",
"K@	c #545473",
"L@	c #2A2A42",
"M@	c #1F1F35",
"N@	c #515C4B",
"O@	c #386E7D",
"P@	c #636284",
"Q@	c #2F2B48",
"R@	c #292642",
"S@	c #2C2945",
"T@	c #31667E",
"U@	c #2F6880",
"V@	c #4A849A",
"W@	c #4F8D9F",
"X@	c #697052",
"Y@	c #5A5E45",
"Z@	c #9593C4",
"`@	c #5A5A80",
" #	c #333352",
".#	c #434366",
"+#	c #48486A",
"@#	c #4E7C8E",
"##	c #3F7B8A",
"$#	c #3C6678",
"%#	c #2B566E",
"&#	c #2B6980",
"*#	c #336E86",
"=#	c #39768A",
"-#	c #2D6372",
";#	c #365A69",
">#	c #47778E",
",#	c #466E7D",
"'#	c #707098",
")#	c #3C3C5C",
"!#	c #262643",
"~#	c #4A7686",
"{#	c #4C7B8C",
"]#	c #4C859A",
"^#	c #2B677F",
"/#	c #2D6982",
"(#	c #306A83",
"_#	c #28526A",
":#	c #21435A",
"<#	c #416173",
"[#	c #477182",
"}#	c #476D7C",
"|#	c #497282",
"1#	c #4A7889",
"2#	c #4C7B8D",
"3#	c #2B647D",
"4#	c #215067",
"5#	c #1C3D53",
"6#	c #1F4157",
"7#	c #1C3E53",
"8#	c #466777",
"9#	c #466C7D",
"0#	c #476E7B",
"a#	c #48707F",
"b#	c #4A7586",
"c#	c #4C7B8B",
"d#	c #447488",
"e#	c #1B3C52",
"f#	c #113448",
"g#	c #183A4E",
"h#	c #3F6071",
"i#	c #436474",
"j#	c #446777",
"k#	c #486E7C",
"l#	c #476D7B",
"m#	c #4A7787",
"n#	c #4D7C8E",
"o#	c #486A7B",
"p#	c #486979",
"q#	c #446474",
"r#	c #436372",
"s#	c #436373",
"t#	c #47707E",
"u#	c #4A7484",
"v#	c #4B7A8C",
"w#	c #446675",
"x#	c #426373",
"y#	c #436272",
"z#	c #426271",
"A#	c #4B7888",
"B#	c #456777",
"C#	c #456878",
"                          . + @                                 ",
"                        # $ % & *                               ",
"                        = - ; > , '                             ",
"                        ) ! ~ { ] ^                             ",
"                        / ( _ : < [ }                           ",
"                      |   1 2 3 4     5 6                       ",
"            7 8 9 0 a   b     c d e f       g     h i j k       ",
"          l m n o p     q   r s t u v w         x y z A B C     ",
"          D E F G H I J K L M N O P h Q R S T U V W X Y V Z     ",
"          `  ...+.i @.#.  $.%.&.*.=.-.;.        >.,.'.).!.~.    ",
"            {.].^./.(._.:.<.  [.}.|.1.2.3.4.5.6.  7.8.9.0.      ",
"              a.b.c.d.e.f.g.h.i.  j.k.l.m.n.o.    p.            ",
"            q.r.s.t.u.v.w.x.y.z.A.B.C.D.E.F.G.  H.  I.          ",
"            J.K.L.M.N.- O.  P.    Q.R.S.T.U.V.  W.  X.          ",
"            Y.  Z.`. +.+++@+#+  $+%+&+*+=+-+s ;+    >+          ",
"              ,+  '+)+!+~+{+]+^+    /+(+_+:+<+[+    }+          ",
"          |+  1+  2+3+4+5+6+7+8+  9+0+a+b+c+d+e+f+  g+          ",
"          h+i+    j+k+l+m+n+o+p+  q+r+s+H.U t+u+v+  w+          ",
"        x+y+z+    A+B+C+D+E+F+G+H+I+J+K+t+L+M+&+N+              ",
"      O+P+Q+R+6       S+T+U+c.V+W+  X+Y+Z+`+ @Y .@+@@@#@        ",
"    $@%@&@*@=@-@        ;@>@,@'@)@!@~@{@]@  ^@/@(@_@:@<@        ",
"    [@}@|@1@b.2@3@4@5@6@7@8@9@0@a@b@c@d@e@f@g@h@i@j@k@l@m@      ",
"    n@o@p@q@r@  s@t@    u@v@w@x@y@z@A@B@C@D@E@F@G@H@I@; J@      ",
"      K@L@M@          N@O@P@Q@R@S@T@U@V@W@X@Y@Z@`@ #.#+#        ",
"                        @###$#%#&#*#=#-#;#>#,#  '#)#!#          ",
"                        ~#{#]#^#/#(#_#:#<#[#}#                  ",
"                        |#1#2#3#4#5#6#7#8#9#0#                  ",
"                        a#b#c#d#e#f#g#h#i#j#k#                  ",
"                        l#|#m#n#o#8#p#q#r#s#                    ",
"                          t#u#v#j#w#x#y#z#                      ",
"                              A#B#r#z#                          ",
"                                C#                              "};
