#define xcrysden_mask_width 72
#define xcrysden_mask_height 84
static unsigned char xcrysden_mask_bits[] = {
   0x00, 0x00, 0x00, 0x00, 0x00, 0x00, 0x00, 0x00, 0x00, 0x00, 0x00, 0x00,
   0x00, 0x00, 0x00, 0x00, 0x00, 0x00, 0x00, 0x00, 0x00, 0x00, 0x00, 0x00,
   0x00, 0x00, 0x00, 0x00, 0x00, 0x00, 0x00, 0x00, 0x00, 0x00, 0x00, 0x00,
   0x00, 0x00, 0x00, 0x00, 0x00, 0x00, 0x00, 0x00, 0x00, 0x00, 0x00, 0x00,
   0x00, 0x00, 0x00, 0x00, 0x00, 0x00, 0x00, 0x00, 0x00, 0x00, 0x00, 0x00,
   0x00, 0x00, 0x00, 0x00, 0x00, 0x00, 0x80, 0x1f, 0x00, 0x00, 0x00, 0x00,
   0x00, 0x00, 0x00, 0x40, 0x3f, 0x00, 0x00, 0x00, 0x00, 0x00, 0x00, 0x00,
   0xa0, 0x7f, 0x00, 0x00, 0x00, 0x00, 0x00, 0x00, 0x00, 0x40, 0xfd, 0x00,
   0x00, 0x00, 0x00, 0x00, 0x00, 0x00, 0x80, 0xff, 0x00, 0x00, 0x00, 0x00,
   0x00, 0x00, 0x00, 0x40, 0x75, 0x00, 0x00, 0x00, 0x00, 0x00, 0x00, 0x00,
   0xa0, 0xfb, 0x00, 0x00, 0x00, 0x00, 0x00, 0x00, 0x00, 0x40, 0xd5, 0x00,
   0x00, 0x00, 0x00, 0x00, 0x00, 0x00, 0x88, 0xaa, 0x03, 0x00, 0x00, 0x00,
   0x00, 0x00, 0x00, 0x44, 0x15, 0x04, 0x00, 0x00, 0x00, 0x00, 0x00, 0x00,
   0x02, 0x02, 0x38, 0x00, 0x00, 0x00, 0x00, 0xd0, 0x41, 0x40, 0x02, 0xc0,
   0x00, 0x00, 0x00, 0x00, 0xf8, 0x03, 0x20, 0xfe, 0x80, 0x03, 0x1c, 0x00,
   0x00, 0xf4, 0x17, 0x00, 0xf7, 0x01, 0x04, 0x75, 0x00, 0x00, 0xfa, 0x03,
   0x10, 0xfa, 0x03, 0xb0, 0xff, 0x00, 0x00, 0xd4, 0x0f, 0x00, 0x75, 0x03,
   0x40, 0xfd, 0x00, 0x00, 0xe8, 0xff, 0x8b, 0xff, 0x03, 0x80, 0xfe, 0x01,
   0x00, 0x54, 0x07, 0x04, 0x55, 0x57, 0x77, 0x75, 0x01, 0x00, 0xa2, 0x0f,
   0x00, 0xfb, 0x03, 0x00, 0xfb, 0x01, 0x00, 0x54, 0xd5, 0x01, 0xd5, 0x01,
   0x40, 0x55, 0x01, 0x00, 0x88, 0xfe, 0x43, 0xab, 0xfd, 0xc0, 0xea, 0x00,
   0x00, 0x70, 0xf5, 0x17, 0x55, 0xf4, 0x11, 0x55, 0x00, 0x00, 0x20, 0xfa,
   0x8f, 0xa3, 0xfa, 0x07, 0x22, 0x00, 0x00, 0x20, 0xd4, 0x1f, 0x40, 0xf5,
   0x07, 0x14, 0x00, 0x00, 0x20, 0xe8, 0xff, 0xa1, 0xfe, 0x87, 0x04, 0x00,
   0x00, 0x30, 0x54, 0x07, 0x51, 0x55, 0x47, 0x04, 0x00, 0x00, 0x30, 0xa2,
   0x8f, 0xbe, 0xfa, 0x03, 0x04, 0x00, 0x00, 0x10, 0x54, 0xc5, 0xd5, 0x55,
   0x01, 0x04, 0x00, 0x00, 0x10, 0x88, 0xfe, 0xeb, 0xaa, 0x03, 0x06, 0x00,
   0x00, 0x10, 0x50, 0xf5, 0x57, 0x55, 0x11, 0x00, 0x00, 0x00, 0x10, 0x20,
   0xfa, 0xaf, 0x23, 0x08, 0x02, 0x00, 0x00, 0x10, 0x44, 0xd5, 0x5f, 0x55,
   0x01, 0x00, 0x00, 0x00, 0x18, 0xe2, 0xe9, 0x8f, 0xaa, 0x06, 0x02, 0x00,
   0x00, 0x10, 0x50, 0x55, 0x57, 0x55, 0x07, 0x02, 0x00, 0x00, 0x18, 0xa1,
   0xa3, 0xef, 0xf8, 0x1f, 0x02, 0x00, 0x00, 0x00, 0x50, 0x55, 0x55, 0xd4,
   0x1f, 0x03, 0x00, 0x00, 0x88, 0xa8, 0x8a, 0x62, 0xe8, 0x1f, 0x02, 0x00,
   0x00, 0x40, 0x50, 0x55, 0x41, 0x55, 0x17, 0x01, 0x00, 0x00, 0x0e, 0xa0,
   0x3b, 0x40, 0xa6, 0x1f, 0x01, 0x00, 0x00, 0x3d, 0x54, 0x55, 0x55, 0x54,
   0x15, 0x01, 0x00, 0x80, 0x7f, 0x80, 0xca, 0x7e, 0xea, 0xea, 0x07, 0x00,
   0x40, 0x7f, 0x40, 0x45, 0xbf, 0x50, 0x55, 0x0f, 0x00, 0xa0, 0xbf, 0x00,
   0xa0, 0x3f, 0x30, 0xf6, 0x1f, 0x00, 0x40, 0xfd, 0x00, 0x50, 0x7f, 0x00,
   0xd4, 0x1f, 0x00, 0x80, 0xfe, 0xaa, 0xaf, 0xff, 0x08, 0xe8, 0x1f, 0x00,
   0x40, 0x55, 0x00, 0x50, 0x75, 0x45, 0x55, 0x17, 0x00, 0x00, 0xba, 0x01,
   0xa0, 0xbb, 0x07, 0xa0, 0x1f, 0x00, 0x40, 0x55, 0x05, 0x50, 0x55, 0x05,
   0x50, 0x15, 0x00, 0x80, 0x28, 0x18, 0x98, 0xea, 0x3e, 0x8a, 0x0e, 0x00,
   0x00, 0x04, 0x50, 0x54, 0x55, 0x55, 0x51, 0x05, 0x00, 0x00, 0x00, 0x80,
   0xbb, 0xbb, 0x3b, 0x20, 0x02, 0x00, 0x00, 0x00, 0x00, 0x55, 0x55, 0x55,
   0x00, 0x00, 0x00, 0x00, 0x00, 0x00, 0xec, 0xef, 0xaf, 0x00, 0x00, 0x00,
   0x00, 0x00, 0x00, 0x55, 0x55, 0x55, 0x00, 0x00, 0x00, 0x00, 0x00, 0x00,
   0xa2, 0xbb, 0xbb, 0x00, 0x00, 0x00, 0x00, 0x00, 0x00, 0x55, 0x55, 0x55,
   0x00, 0x00, 0x00, 0x00, 0x00, 0x00, 0x00, 0xae, 0xea, 0x00, 0x00, 0x00,
   0x00, 0x00, 0x00, 0x55, 0x55, 0x55, 0x00, 0x00, 0x00, 0x00, 0x00, 0x00,
   0x02, 0xaa, 0xab, 0x00, 0x00, 0x00, 0x00, 0x00, 0x00, 0x55, 0x55, 0x55,
   0x00, 0x00, 0x00, 0x00, 0x00, 0x00, 0x00, 0xa8, 0xaa, 0x00, 0x00, 0x00,
   0x00, 0x00, 0x00, 0x55, 0x55, 0x55, 0x00, 0x00, 0x00, 0x00, 0x00, 0x00,
   0x22, 0xba, 0xbb, 0x00, 0x00, 0x00, 0x00, 0x00, 0x00, 0x55, 0x55, 0x55,
   0x00, 0x00, 0x00, 0x00, 0x00, 0x00, 0x00, 0xa8, 0x0a, 0x00, 0x00, 0x00,
   0x00, 0x00, 0x00, 0x50, 0x55, 0x05, 0x00, 0x00, 0x00, 0x00, 0x00, 0x00,
   0x00, 0xaa, 0x03, 0x00, 0x00, 0x00, 0x00, 0x00, 0x00, 0x40, 0x55, 0x00,
   0x00, 0x00, 0x00, 0x00, 0x00, 0x00, 0x00, 0x28, 0x00, 0x00, 0x00, 0x00,
   0x00, 0x00, 0x00, 0x00, 0x04, 0x00, 0x00, 0x00, 0x00, 0x00, 0x00, 0x00,
   0x00, 0x00, 0x00, 0x00, 0x00, 0x00, 0x00, 0x00, 0x00, 0x00, 0x00, 0x00,
   0x00, 0x00, 0x00, 0x00, 0x00, 0x00, 0x00, 0x00, 0x00, 0x00, 0x00, 0x00,
   0x00, 0x00, 0x00, 0x00, 0x00, 0x00, 0x00, 0x00, 0x00, 0x00, 0x00, 0x00,
   0x00, 0x00, 0x00, 0x00, 0x00, 0x00, 0x00, 0x00, 0x00, 0x00, 0x00, 0x00,
   0x00, 0x00, 0x00, 0x00, 0x00, 0x00, 0x00, 0x00, 0x00, 0x00, 0x00, 0x00};
